<svg width="150" height="150" viewBox="0 0 150 150" fill="none" xmlns="http://www.w3.org/2000/svg">
<path d="M38.3438 79.7812C35.75 79.7812 33.2812 79.3594 30.9375 78.5156C28.625 77.6406 26.5938 76.3594 24.8438 74.6719C23.0938 72.9844 21.6875 70.9219 20.625 68.4844C19.5938 66.0156 19.0781 63.2031 19.0781 60.0469C19.0781 57.0469 19.6406 54.2344 20.7656 51.6094C21.8906 48.9844 23.4531 46.7031 25.4531 44.7656C27.4844 42.7969 29.8906 41.25 32.6719 40.125C35.4531 39 38.5 38.4375 41.8125 38.4375C45.125 38.4375 48.125 38.9844 50.8125 40.0781C53.5 41.1719 55.7969 42.7031 57.7031 44.6719C59.6406 46.6094 61.125 48.9375 62.1562 51.6562C63.1875 54.375 63.7031 57.375 63.7031 60.6562C63.7031 62.6562 63.5156 64.5469 63.1406 66.3281C62.7969 68.0781 62.2656 69.8125 61.5469 71.5312C60.8594 73.2188 60.0156 74.9062 59.0156 76.5938C58.0469 78.2812 56.9375 80.0156 55.6875 81.7969L38.9531 105.984C38.5469 106.578 37.9531 107.062 37.1719 107.438C36.3906 107.812 35.5156 108 34.5469 108H26.6719L47.5781 80.5781C48.2969 79.6719 48.9531 78.7969 49.5469 77.9531C50.1719 77.1094 50.75 76.2812 51.2812 75.4688C49.5312 76.875 47.5469 77.9531 45.3281 78.7031C43.1094 79.4219 40.7812 79.7812 38.3438 79.7812ZM55.5 59.6719C55.5 57.5156 55.1562 55.5781 54.4688 53.8594C53.7812 52.1094 52.8281 50.625 51.6094 49.4062C50.3906 48.1875 48.9375 47.25 47.25 46.5938C45.5938 45.9375 43.75 45.6094 41.7188 45.6094C39.625 45.6094 37.7031 45.9531 35.9531 46.6406C34.2031 47.3281 32.7031 48.2812 31.4531 49.5C30.2344 50.7188 29.2812 52.1719 28.5938 53.8594C27.9375 55.5469 27.6094 57.4062 27.6094 59.4375C27.6094 61.5938 27.9219 63.5312 28.5469 65.25C29.1719 66.9688 30.0625 68.4219 31.2188 69.6094C32.4062 70.7969 33.8281 71.7031 35.4844 72.3281C37.1719 72.9219 39.0625 73.2188 41.1562 73.2188C43.4688 73.2188 45.5 72.8438 47.25 72.0938C49.0312 71.3125 50.5312 70.3125 51.75 69.0938C52.9688 67.8438 53.8906 66.4062 54.5156 64.7812C55.1719 63.125 55.5 61.4219 55.5 59.6719ZM120.469 73.6406C120.469 79.6406 119.812 84.8438 118.5 89.25C117.219 93.6562 115.453 97.2969 113.203 100.172C110.984 103.047 108.344 105.188 105.281 106.594C102.219 108 98.9375 108.703 95.4375 108.703C91.9375 108.703 88.6719 108 85.6406 106.594C82.6094 105.188 79.9688 103.047 77.7188 100.172C75.5 97.2969 73.75 93.6562 72.4688 89.25C71.1875 84.8438 70.5469 79.6406 70.5469 73.6406C70.5469 67.6094 71.1875 62.3906 72.4688 57.9844C73.75 53.5781 75.5 49.9219 77.7188 47.0156C79.9688 44.1094 82.6094 41.9531 85.6406 40.5469C88.6719 39.1406 91.9375 38.4375 95.4375 38.4375C98.9375 38.4375 102.219 39.1406 105.281 40.5469C108.344 41.9531 110.984 44.1094 113.203 47.0156C115.453 49.9219 117.219 53.5781 118.5 57.9844C119.812 62.3906 120.469 67.6094 120.469 73.6406ZM111.609 73.6406C111.609 68.3906 111.156 63.9844 110.25 60.4219C109.375 56.8594 108.188 53.9844 106.688 51.7969C105.219 49.6094 103.5 48.0469 101.531 47.1094C99.5938 46.1719 97.5625 45.7031 95.4375 45.7031C93.3438 45.7031 91.3125 46.1719 89.3438 47.1094C87.4062 48.0469 85.7031 49.6094 84.2344 51.7969C82.7656 53.9844 81.5781 56.8594 80.6719 60.4219C79.7969 63.9844 79.3594 68.3906 79.3594 73.6406C79.3594 78.8906 79.7969 83.2969 80.6719 86.8594C81.5781 90.3906 82.7656 93.25 84.2344 95.4375C85.7031 97.5938 87.4062 99.1562 89.3438 100.125C91.3125 101.062 93.3438 101.531 95.4375 101.531C97.5625 101.531 99.5938 101.062 101.531 100.125C103.5 99.1562 105.219 97.5938 106.688 95.4375C108.188 93.25 109.375 90.3906 110.25 86.8594C111.156 83.2969 111.609 78.8906 111.609 73.6406Z" fill="white"/>
<path d="M127.594 102.703C127.594 101.891 127.734 101.125 128.016 100.406C128.328 99.6562 128.75 99.0156 129.281 98.4844C129.812 97.9219 130.438 97.4844 131.156 97.1719C131.906 96.8281 132.703 96.6562 133.547 96.6562C134.391 96.6562 135.172 96.8281 135.891 97.1719C136.641 97.4844 137.281 97.9219 137.812 98.4844C138.375 99.0156 138.797 99.6562 139.078 100.406C139.391 101.125 139.547 101.891 139.547 102.703C139.547 103.578 139.391 104.375 139.078 105.094C138.797 105.812 138.375 106.453 137.812 107.016C137.281 107.547 136.641 107.953 135.891 108.234C135.172 108.547 134.391 108.703 133.547 108.703C132.703 108.703 131.906 108.547 131.156 108.234C130.438 107.953 129.812 107.547 129.281 107.016C128.75 106.453 128.328 105.812 128.016 105.094C127.734 104.375 127.594 103.578 127.594 102.703Z" fill="#D83B3B"/>
</svg>
