<svg width="50" height="52" viewBox="0 0 50 52" fill="none" xmlns="http://www.w3.org/2000/svg">
<rect y="2" width="50" height="50" rx="25" fill="#0799A6"/>
<path d="M11.7812 29.5938C10.9167 29.5938 10.0938 29.4531 9.3125 29.1719C8.54167 28.8802 7.86458 28.4531 7.28125 27.8906C6.69792 27.3281 6.22917 26.6406 5.875 25.8281C5.53125 25.0052 5.35938 24.0677 5.35938 23.0156C5.35938 22.0156 5.54688 21.0781 5.92188 20.2031C6.29688 19.3281 6.81771 18.5677 7.48438 17.9219C8.16146 17.2656 8.96354 16.75 9.89062 16.375C10.8177 16 11.8333 15.8125 12.9375 15.8125C14.0417 15.8125 15.0417 15.9948 15.9375 16.3594C16.8333 16.724 17.599 17.2344 18.2344 17.8906C18.8802 18.5365 19.375 19.3125 19.7188 20.2188C20.0625 21.125 20.2344 22.125 20.2344 23.2188C20.2344 23.8854 20.1719 24.5156 20.0469 25.1094C19.9323 25.6927 19.7552 26.2708 19.5156 26.8438C19.2865 27.4062 19.0052 27.9688 18.6719 28.5312C18.349 29.0938 17.9792 29.6719 17.5625 30.2656L11.9844 38.3281C11.849 38.526 11.651 38.6875 11.3906 38.8125C11.1302 38.9375 10.8385 39 10.5156 39H7.89062L14.8594 29.8594C15.099 29.5573 15.3177 29.2656 15.5156 28.9844C15.724 28.7031 15.9167 28.4271 16.0938 28.1562C15.5104 28.625 14.849 28.9844 14.1094 29.2344C13.3698 29.474 12.5938 29.5938 11.7812 29.5938ZM17.5 22.8906C17.5 22.1719 17.3854 21.526 17.1562 20.9531C16.9271 20.3698 16.6094 19.875 16.2031 19.4688C15.7969 19.0625 15.3125 18.75 14.75 18.5312C14.1979 18.3125 13.5833 18.2031 12.9062 18.2031C12.2083 18.2031 11.5677 18.3177 10.9844 18.5469C10.401 18.776 9.90104 19.0938 9.48438 19.5C9.07812 19.9062 8.76042 20.3906 8.53125 20.9531C8.3125 21.5156 8.20312 22.1354 8.20312 22.8125C8.20312 23.5312 8.30729 24.1771 8.51562 24.75C8.72396 25.3229 9.02083 25.8073 9.40625 26.2031C9.80208 26.599 10.276 26.901 10.8281 27.1094C11.3906 27.3073 12.0208 27.4062 12.7188 27.4062C13.4896 27.4062 14.1667 27.2812 14.75 27.0312C15.3438 26.7708 15.8438 26.4375 16.25 26.0312C16.6562 25.6146 16.9635 25.1354 17.1719 24.5938C17.3906 24.0417 17.5 23.474 17.5 22.8906ZM39.1562 27.5469C39.1562 29.5469 38.9375 31.2812 38.5 32.75C38.0729 34.2188 37.4844 35.4323 36.7344 36.3906C35.9948 37.349 35.1146 38.0625 34.0938 38.5312C33.0729 39 31.9792 39.2344 30.8125 39.2344C29.6458 39.2344 28.5573 39 27.5469 38.5312C26.5365 38.0625 25.6562 37.349 24.9062 36.3906C24.1667 35.4323 23.5833 34.2188 23.1562 32.75C22.7292 31.2812 22.5156 29.5469 22.5156 27.5469C22.5156 25.5365 22.7292 23.7969 23.1562 22.3281C23.5833 20.8594 24.1667 19.6406 24.9062 18.6719C25.6562 17.7031 26.5365 16.9844 27.5469 16.5156C28.5573 16.0469 29.6458 15.8125 30.8125 15.8125C31.9792 15.8125 33.0729 16.0469 34.0938 16.5156C35.1146 16.9844 35.9948 17.7031 36.7344 18.6719C37.4844 19.6406 38.0729 20.8594 38.5 22.3281C38.9375 23.7969 39.1562 25.5365 39.1562 27.5469ZM36.2031 27.5469C36.2031 25.7969 36.0521 24.3281 35.75 23.1406C35.4583 21.9531 35.0625 20.9948 34.5625 20.2656C34.0729 19.5365 33.5 19.0156 32.8438 18.7031C32.1979 18.3906 31.5208 18.2344 30.8125 18.2344C30.1146 18.2344 29.4375 18.3906 28.7812 18.7031C28.1354 19.0156 27.5677 19.5365 27.0781 20.2656C26.5885 20.9948 26.1927 21.9531 25.8906 23.1406C25.599 24.3281 25.4531 25.7969 25.4531 27.5469C25.4531 29.2969 25.599 30.7656 25.8906 31.9531C26.1927 33.1302 26.5885 34.0833 27.0781 34.8125C27.5677 35.5312 28.1354 36.0521 28.7812 36.375C29.4375 36.6875 30.1146 36.8438 30.8125 36.8438C31.5208 36.8438 32.1979 36.6875 32.8438 36.375C33.5 36.0521 34.0729 35.5312 34.5625 34.8125C35.0625 34.0833 35.4583 33.1302 35.75 31.9531C36.0521 30.7656 36.2031 29.2969 36.2031 27.5469Z" fill="white"/>
<path d="M41.5312 37.2344C41.5312 36.9635 41.5781 36.7083 41.6719 36.4688C41.776 36.2188 41.9167 36.0052 42.0938 35.8281C42.2708 35.6406 42.4792 35.4948 42.7188 35.3906C42.9688 35.276 43.2344 35.2188 43.5156 35.2188C43.7969 35.2188 44.0573 35.276 44.2969 35.3906C44.5469 35.4948 44.7604 35.6406 44.9375 35.8281C45.125 36.0052 45.2656 36.2188 45.3594 36.4688C45.4635 36.7083 45.5156 36.9635 45.5156 37.2344C45.5156 37.526 45.4635 37.7917 45.3594 38.0312C45.2656 38.2708 45.125 38.4844 44.9375 38.6719C44.7604 38.849 44.5469 38.9844 44.2969 39.0781C44.0573 39.1823 43.7969 39.2344 43.5156 39.2344C43.2344 39.2344 42.9688 39.1823 42.7188 39.0781C42.4792 38.9844 42.2708 38.849 42.0938 38.6719C41.9167 38.4844 41.776 38.2708 41.6719 38.0312C41.5781 37.7917 41.5312 37.526 41.5312 37.2344Z" fill="#D83B3B"/>
</svg>
